<?xml version="1.0" ?><svg data-name="Your Icons" id="Your_Icons" viewBox="0 0 96 96" xmlns="http://www.w3.org/2000/svg"><defs><style>.cls-1{fill:#336dff;}</style></defs><path class="cls-1" d="M52,87.36a6.26,6.26,0,0,1-2.34-.47A5.92,5.92,0,0,1,46,81.34V75a2,2,0,0,0-2-2H12a6,6,0,0,1-6-6V15a6,6,0,0,1,6-6H84a6,6,0,0,1,6,6V67a6,6,0,0,1-6,6H69.66a2,2,0,0,0-1.42.59l-12,12A5.92,5.92,0,0,1,52,87.36ZM12,13a2,2,0,0,0-2,2V67a2,2,0,0,0,2,2H44a6,6,0,0,1,6,6v6.34a2,2,0,0,0,1.23,1.85,2,2,0,0,0,2.18-.43l12-12A6,6,0,0,1,69.66,69H84a2,2,0,0,0,2-2V15a2,2,0,0,0-2-2Z"/><path class="cls-1" d="M76,27H20a2,2,0,0,1,0-4H76a2,2,0,0,1,0,4Z"/><path class="cls-1" d="M76,43H20a2,2,0,0,1,0-4H76a2,2,0,0,1,0,4Z"/><path class="cls-1" d="M76,59H20a2,2,0,0,1,0-4H76a2,2,0,0,1,0,4Z"/></svg>